<svg height="512pt" viewBox="0 -79 512.00101 512" width="512pt" xmlns="http://www.w3.org/2000/svg"><path d="m501.929688.09375h-383.664063c-5.5625 0-10.070313 4.507812-10.070313 10.070312 0 5.558594 4.507813 10.070313 10.070313 10.070313h36.585937v90.035156h-134.710937v-90.035156h14.878906c5.5625 0 10.070313-4.511719 10.070313-10.070313 0-5.5625-4.507813-10.070312-10.070313-10.070312h-24.949219c-5.5625 0-10.070312 4.507812-10.070312 10.070312v333.691407c0 5.558593 4.507812 10.070312 10.070312 10.070312h491.859376c5.5625 0 10.070312-4.511719 10.070312-10.070312v-333.691407c0-5.5625-4.507812-10.070312-10.070312-10.070312zm-326.9375 219.191406v-21.894531l63.0625-66.980469h20.613281zm0-51.277344v-37.597656h35.398437zm111.339843-37.597656h20.613281l-88.132812 93.613282h-20.617188zm43.488281 5.085938v21.898437l-62.730468 66.628907h-20.617188zm0 51.277344v37.25h-35.070312zm20.136719-25.382813v-30.980469h141.902344v93.613282h-141.902344zm141.902344-51.121094h-141.902344v-90.035156h141.902344zm-162.039063 0h-154.828124v-90.035156h154.828124zm-174.96875 20.140625v93.613282h-134.710937v-93.613282zm-134.710937 113.75h134.710937v4.992188c0 5.558594 4.511719 10.070312 10.070313 10.070312 5.5625 0 10.070313-4.511718 10.070313-10.070312v-4.992188h154.828124v89.625h-154.824218v-11.121094c0-5.5625-4.511719-10.070312-10.070313-10.070312-5.5625 0-10.070312 4.507812-10.070312 10.070312v11.121094h-134.714844zm471.71875 89.625h-141.902344v-89.625h141.902344zm0 0"/><path d="m67.964844 14.027344c1.585937 3.921875 5.355468 6.296875 9.339844 6.296875 1.253906 0 2.53125-.234375 3.769531-.734375 5.15625-2.085938 7.644531-7.957032 5.558593-13.113282l-.070312-.179687c-2.085938-5.15625-7.953125-7.644531-13.113281-5.558594-5.152344 2.085938-7.644531 7.953125-5.558594 13.109375zm0 0"/><path d="m155.625 290.859375c1.582031 3.917969 5.355469 6.296875 9.335938 6.296875 1.257812 0 2.535156-.238281 3.773437-.738281 5.15625-2.082031 7.644531-7.953125 5.558594-13.109375l-.070313-.179688c-2.085937-5.15625-7.953125-7.648437-13.113281-5.5625-5.152344 2.085938-7.644531 7.957032-5.558594 13.113282zm0 0"/></svg>