<svg height="512pt" viewBox="0 -73 512 512" width="512pt" xmlns="http://www.w3.org/2000/svg"><path d="m451.421875 150.6875c-.652344 0-1.3125-.070312-1.953125-.199219-.640625-.128906-1.269531-.320312-1.867188-.570312-.601562-.25-1.179687-.558594-1.730468-.921875-.542969-.359375-1.0625-.777344-1.519532-1.238282-.460937-.460937-.882812-.96875-1.242187-1.519531-.359375-.539062-.667969-1.121093-.917969-1.730469-.25-.601562-.441406-1.230468-.570312-1.871093s-.191406-1.296875-.191406-1.949219c0-.648438.0625-1.308594.191406-1.960938.128906-.628906.320312-1.257812.570312-1.867187.25-.601563.558594-1.179687.917969-1.722656.359375-.546875.78125-1.058594 1.242187-1.519531.457032-.460938.976563-.878907 1.519532-1.238282.550781-.359375 1.128906-.671875 1.730468-.921875.597657-.25 1.226563-.449219 1.867188-.570312 1.292969-.257813 2.621094-.257813 3.910156 0 .640625.121093 1.269532.320312 1.871094.570312s1.179688.558594 1.71875.921875c.550781.359375 1.0625.777344 1.523438 1.238282.46875.460937.878906.972656 1.25 1.519531.359374.542969.667968 1.121093.917968 1.722656.25.609375.441406 1.238281.570313 1.867187.128906.652344.191406 1.3125.191406 1.960938 0 .652344-.0625 1.308594-.191406 1.949219-.128907.640625-.320313 1.269531-.570313 1.871093-.25.609376-.558594 1.191407-.917968 1.730469-.371094.550781-.78125 1.058594-1.25 1.519531-.460938.460938-.972657.878907-1.523438 1.238282-.539062.363281-1.117188.671875-1.71875.921875s-1.230469.441406-1.871094.570312c-.648437.128907-1.308594.199219-1.957031.199219zm0 0"/><path d="m205 322.566406c-.648438 0-1.3125-.058594-1.960938-.1875-.628906-.132812-1.257812-.320312-1.867187-.570312-.601563-.25-1.183594-.5625-1.722656-.921875-.550781-.367188-1.058594-.777344-1.519531-1.238281-.46875-.46875-.878907-.980469-1.25-1.53125-.359376-.539063-.667969-1.121094-.917969-1.71875-.25-.609376-.441407-1.242188-.570313-1.871094-.132812-.648438-.191406-1.300782-.191406-1.960938 0-.648437.0625-1.308594.191406-1.949218.128906-.640626.320313-1.269532.570313-1.871094.25-.597656.558593-1.1875.917969-1.726563.371093-.539062.78125-1.0625 1.25-1.523437.460937-.460938.96875-.878906 1.519531-1.238282.539062-.359374 1.121093-.667968 1.722656-.917968.609375-.25 1.238281-.441406 1.867187-.570313 1.289063-.261719 2.621094-.261719 3.910157 0 .640625.128907 1.269531.320313 1.871093.570313.609376.25 1.1875.558594 1.730469.917968.546875.359376 1.058594.78125 1.519531 1.238282.460938.460937.878907.972656 1.238282 1.523437.359375.539063.671875 1.128907.921875 1.726563.25.601562.4375 1.230468.570312 1.871094.128907.640624.199219 1.300781.199219 1.949218 0 .660156-.070312 1.3125-.199219 1.960938-.132812.628906-.320312 1.261718-.570312 1.871094-.25.597656-.5625 1.179687-.921875 1.71875-.359375.550781-.777344 1.0625-1.238282 1.53125-.460937.460937-.972656.871093-1.519531 1.238281-.542969.359375-1.121093.671875-1.730469.921875-.601562.25-1.230468.4375-1.871093.570312-.640625.128906-1.300781.1875-1.949219.1875zm0 0"/><path d="m502 86.449219h-113v-76.449219c0-5.523438-4.476562-10-10-10h-369c-5.523438 0-10 4.476562-10 10v345.796875c0 5.523437 4.476562 10 10 10h492c5.523438 0 10-4.476563 10-10v-259.347656c0-5.523438-4.476562-10-10-10zm-359 172.898437v-66.449218h226v66.449218zm103-152.898437v66.449219h-226v-66.449219zm-226 86.449219h103v66.449218h-103zm369 0h103v66.449218h-103zm103-20h-226v-22.210938h142.421875c5.523437 0 10-4.476562 10-10s-4.476563-10-10-10h-142.421875v-24.238281h226zm-123-86.449219h-226v-66.449219h226zm-349-66.449219h103v66.449219h-103zm0 302.570312h141.996094c5.519531 0 10-4.476562 10-10 0-5.523437-4.480469-10-10-10h-141.996094v-23.222656h226v66.449219h-226zm472 23.226563h-226v-66.449219h226zm0 0"/></svg>