<svg height="512pt" viewBox="0 -38 512.001 512" width="512pt" xmlns="http://www.w3.org/2000/svg"><path d="m504.5 82c-4.140625 0-7.5 3.359375-7.5 7.5v320.5h-15v-372.5c0-4.140625-3.359375-7.5-7.5-7.5h-437c-4.140625 0-7.5 3.359375-7.5 7.5v372.5h-15v-32.5c0-4.140625-3.359375-7.5-7.5-7.5s-7.5 3.359375-7.5 7.5v40c0 4.144531 3.359375 7.5 7.5 7.5h22.5v2.5c0 4.144531 3.359375 7.5 7.5 7.5h76.289062c2.160157 0 4.21875-.929688 5.640626-2.554688 1.425781-1.625 2.078124-3.785156 1.796874-5.929687l-.199218-1.515625h230.972656c4.140625 0 7.5-3.359375 7.5-7.5 0-4.144531-3.359375-7.5-7.5-7.5h-232.957031l-1.980469-15h277.875l-1.980469 15h-8.957031c-4.140625 0-7.5 3.355469-7.5 7.5 0 4.140625 3.359375 7.5 7.5 7.5h6.976562l-.203124 1.515625c-.28125 2.144531.375 4.304687 1.796874 5.929687 1.425782 1.625 3.480469 2.554688 5.640626 2.554688h76.289062c4.144531 0 7.5-3.355469 7.5-7.5v-2.5h22.5c4.144531 0 7.5-3.355469 7.5-7.5v-328c0-4.140625-3.359375-7.5-7.5-7.5zm-85 164.839844c-4.136719 0-7.5-3.363282-7.5-7.5 0-4.136719 3.363281-7.5 7.5-7.5h47.5v15zm-20.878906-201.839844 32.882812 133.84375c.839844 3.421875 3.90625 5.710938 7.277344 5.710938.589844 0 1.195312-.070313 1.792969-.21875 4.023437-.988282 6.484375-5.050782 5.496093-9.070313l-32.003906-130.265625h21.554688l6.40625 74.148438c.339844 3.90625 3.613281 6.851562 7.464844 6.851562.214843 0 .433593-.007812.652343-.027344 4.128907-.355468 7.183594-3.988281 6.828125-8.117187l-6.296875-72.855469h16.324219v171.839844h-40.71875l-42.214844-171.839844zm-337.296875 0-6.296875 72.855469c-.355469 4.125 2.699218 7.761719 6.828125 8.117187.21875.019532.4375.027344.652343.027344 3.851563 0 7.125-2.949219 7.464844-6.855469l6.40625-74.144531h21.554688l-32.003906 130.265625c-.988282 4.019531 1.472656 8.082031 5.496093 9.070313.601563.148437 1.203125.21875 1.792969.21875 3.371094 0 6.4375-2.289063 7.277344-5.710938l32.882812-133.84375h14.554688l-42.214844 171.839844h-40.71875v-171.839844zm31.175781 201.839844h-47.5v-15h47.5c4.136719 0 7.5 3.363281 7.5 7.5 0 4.136718-3.363281 7.5-7.5 7.5zm-47.5 173.160156v-158.160156h39.34375l20.890625 158.160156zm54.335938-159.226562c9.074218-2.898438 15.664062-11.410157 15.664062-21.433594 0-9.484375-5.902344-17.613282-14.222656-20.917969l42.605468-173.421875h105.117188v335h-133.417969zm164.164062 119.226562v-335h105.117188l42.605468 173.421875c-8.320312 3.304687-14.222656 11.433594-14.222656 20.917969 0 10.023437 6.589844 18.535156 15.664062 21.433594l-15.746093 119.226562zm203.5 40h-60.234375l20.890625-158.160156h39.34375zm0 0"/><path d="m504.5 0h-497c-4.140625 0-7.5 3.359375-7.5 7.5v338c0 4.144531 3.359375 7.5 7.5 7.5s7.5-3.355469 7.5-7.5v-330.5h482v42.5c0 4.144531 3.359375 7.5 7.5 7.5s7.5-3.355469 7.5-7.5v-50c0-4.140625-3.359375-7.5-7.5-7.5zm0 0"/></svg>