<svg height="480pt" viewBox="0 -56 480 480" width="480pt" xmlns="http://www.w3.org/2000/svg"><path d="m424 129.855469v-89.855469c-.027344-22.082031-17.917969-39.9726562-40-40h-288c-22.082031.0273438-39.972656 17.917969-40 40v89.855469c-32.722656 7.488281-55.9453125 36.574219-56 70.144531v112c0 4.417969 3.582031 8 8 8h8v40c0 4.417969 3.582031 8 8 8h32c4.417969 0 8-3.582031 8-8v-40h352v40c0 4.417969 3.582031 8 8 8h32c4.417969 0 8-3.582031 8-8v-40h8c4.417969 0 8-3.582031 8-8v-112c-.054688-33.570312-23.277344-62.65625-56-70.144531zm-352-89.855469c0-13.253906 10.746094-24 24-24h288c13.253906 0 24 10.746094 24 24v88h-32v-40c0-13.253906-10.746094-24-24-24h-80c-13.253906 0-24 10.746094-24 24v40h-16v-40c0-13.253906-10.746094-24-24-24h-80c-13.253906 0-24 10.746094-24 24v40h-32zm288 88h-96v-40c0-4.417969 3.582031-8 8-8h80c4.417969 0 8 3.582031 8 8zm-144 0h-96v-40c0-4.417969 3.582031-8 8-8h80c4.417969 0 8 3.582031 8 8zm-200 72c.035156-30.914062 25.085938-55.964844 56-56h336c30.914062.035156 55.964844 25.085938 56 56v72h-448zm32 152h-16v-32h16zm400 0h-16v-32h16zm16-48h-448v-16h448zm0 0"/><path d="m400 248h-16c-4.417969 0-8 3.582031-8 8s3.582031 8 8 8h16c4.417969 0 8-3.582031 8-8s-3.582031-8-8-8zm0 0"/><path d="m448 224c-4.417969 0-8 3.582031-8 8v16h-16c-4.417969 0-8 3.582031-8 8s3.582031 8 8 8h24c4.417969 0 8-3.582031 8-8v-24c0-4.417969-3.582031-8-8-8zm0 0"/><path d="m72 152c-26.5.027344-47.972656 21.5-48 48v56c0 4.417969 3.582031 8 8 8s8-3.582031 8-8v-56c0-17.671875 14.328125-32 32-32 4.417969 0 8-3.582031 8-8s-3.582031-8-8-8zm0 0"/></svg>