<svg height="511pt" viewBox="0 -21 511.99935 511" width="511pt" xmlns="http://www.w3.org/2000/svg"><path d="m398.066406 270.835938c8.273438-1.277344 16.734375.875 24.460938 4.097656 7.730468 3.226562 14.976562 7.515625 22.671875 10.816406 7.773437 3.335938 15.957031 5.5625 24.191406 7.425781 7.828125 1.777344 16.394531 4.21875 24.433594 2.578125 9.105469-1.859375 16.632812-9.832031 17.960937-19.03125 1.328125-9.195312-3.632812-18.976562-11.84375-23.332031-7.144531-3.792969-15.675781-3.519531-23.574218-5.289063-9.253907-2.070312-17.585938-6.945312-26.113282-11.09375-8.589844-4.175781-17.566406-7.664062-26.886718-9.8125-8.390626-1.933593-16.753907-2.285156-25.320313-2.285156v-24.238281c0-.082031 0-.15625 0-.234375l19.621094-8.214844c30.917969-12.9375 53.941406-38.828125 63.175781-71.035156 2.308594-8.0625 5.472656-15.304688 9.398438-21.523438 0 0 12.300781-19.496093 12.300781-19.496093 6.6875-10.597657 3.054687-25.667969-7.820313-32.015625-10.324218-6.023438-24.578125-2.519532-30.933594 7.558594l-12.304687 19.496093c-6.242187 9.894531-11.1875 21.117188-14.695313 33.351563-5.378906 18.765625-18.796874 33.851562-36.8125 41.390625l-12.667968 5.300781c-6.011719-11.902344-14.417969-22.613281-24.917969-31.492188-1.027344-27.6875-17.089844-52.304687-41.65625-68.457031-1.515625-30.429687-31.683594-54.800781-68.550781-54.800781-36.867188 0-67.039063 24.367188-68.550782 54.800781-24.570312 16.152344-40.632812 40.773438-41.65625 68.464844-9.59375 8.148437-17.503906 17.984375-23.414062 28.890625l-6.464844-2.707031c-18.015625-7.539063-31.433594-22.625-36.8125-41.390625-3.507812-12.234375-8.453125-23.457032-14.695312-33.351563l-12.300782-19.496093c-6.742187-10.683594-20.921874-13.890626-31.609374-7.148438-10.683594 6.742188-13.890626 20.917969-7.148438 31.605469l12.300781 19.496093c3.929688 6.222657 7.089844 13.464844 9.402344 21.523438 9.230469 32.207031 32.257813 58.101562 63.171875 71.039062l11.976562 5.011719c-.039062 1.140625-.058593 27.746094-.058593 27.746094-15.300781.582031-30.414063 4.652344-43.9375 11.855469l-9.382813 4.996094c-4.910156 2.617187-10.167968 4.476562-15.628906 5.535156l-18.816406 3.644531c-12.402344 2.398437-20.539063 14.445313-18.136719 26.847656 2.082031 10.757813 11.535156 18.5625 22.476563 18.5625 7.652343 0 15.691406-2.609375 23.191406-4.0625 9.941406-1.925781 19.515625-5.316406 28.457031-10.078125l9.382813-5c6.914062-3.679687 14.585937-5.871094 22.394531-6.414062 0 0 .042969 31.203125.125 33.445312l-12.042969 5.039063c-31.433594 13.152343-55.316406 40.6875-63.886719 73.65625-1.496093 5.742187-4.015625 11.421875-7.496093 16.871093 0 0-15.488282 24.261719-15.492188 24.269532-7.0625 11.066406-3.097656 26.300781 8.476562 32.519531 10.421876 5.59375 23.808594 2.074219 30.152344-7.863281l15.492188-24.269532c6.066406-9.503906 10.515625-19.597656 13.21875-29.992187 4.992187-19.207031 18.910156-35.25 37.226562-42.917969l2.113282-.882812c3.921874 12.953125 9.277343 25.480468 15.988281 37.316406 15.621093 27.53125 38.238281 50.664062 65.410156 66.902344 34.238281 20.460937 78.792969 20.535156 113.152344 0 27.171875-16.238282 49.789062-39.371094 65.410156-66.902344 7.210937-12.707031 12.847656-26.214844 16.832031-40.1875l8.976563 3.753906c18.316406 7.667969 32.234375 23.710938 37.226562 42.917969 2.703125 10.398437 7.152344 20.488281 13.21875 29.992187l15.492188 24.269532c5.605469 8.785156 17.078125 12.761718 26.933593 9.285156 13.679688-4.824219 19.484376-21.734375 11.695313-33.941406l-15.492187-24.269532c-3.480469-5.449218-6-11.125-7.496094-16.871093-8.570313-32.96875-32.457032-60.503907-63.886719-73.65625l-19.660156-8.226563c.195312-10.09375.023437-20.199218.054687-30.292968zm44.570313-20.753907 9.382812 4.996094c6.230469 3.320313 12.902344 5.679687 19.828125 7.023437l18.816406 3.640626c4.285157.832031 7.09375 4.988281 6.265626 9.273437-.792969 4.089844-5.148438 7.0625-9.273438 6.261719l-18.816406-3.644532c-8.472656-1.640624-16.636719-4.527343-24.257813-8.589843l-9.382812-4.996094c-11.480469-6.113281-24.261719-8.3125-37.152344-8.3125v-15.824219c1.285156 0 24.847656-1.746094 44.589844 10.171875zm-36.867188-86.292969c22.238281-9.308593 38.800781-27.929687 45.441407-51.09375 3.117187-10.871093 7.476562-20.789062 12.960937-29.480468l12.304687-19.496094c2.328126-3.6875 7.222657-4.796875 10.910157-2.46875 3.597656 2.269531 4.726562 7.339844 2.46875 10.910156l-12.300781 19.496094c-4.683594 7.425781-8.429688 15.96875-11.132813 25.394531-7.96875 27.808594-27.851563 50.164063-54.542969 61.332031l-15.082031 6.3125c-.839844-5.316406-2.097656-10.523437-3.753906-15.582031zm-153.585937-148.289062c24.449218 0 45.125 12.949219 51.546875 30.589844-15.390625-6.75-32.9375-10.578125-51.546875-10.578125-18.605469 0-36.152344 3.828125-51.542969 10.578125 6.417969-17.640625 27.097656-30.589844 51.542969-30.589844zm0 35.015625c46.40625 0 85.171875 26.636719 93.570312 61.769531-14.757812-8.140625-31.261718-12.386718-48.480468-12.386718h-83.003907c-4.144531 0-7.503906 3.359374-7.503906 7.503906 0 4.140625 3.359375 7.5 7.503906 7.5h83.003907c19.1875 0 37.324218 6.1875 52.453124 17.898437 13.742188 10.640625 14.648438 26.101563 10.914063 37.023438-4.847656 14.183593-17.566406 23.347656-32.402344 23.347656h-152.046875c-18.105468 0-28.535156-12.03125-32.265625-23.289063-3.738281-11.300781-2.539062-27.242187 12.046875-38.089843 7.832032-5.824219 16.511719-10.226563 25.792969-13.09375 3.960937-1.21875 6.175781-5.417969 4.957031-9.378907-1.222656-3.957031-5.421875-6.175781-9.378906-4.953124-6.519531 2.011718-12.785156 4.667968-18.730469 7.941406 8.390625-35.144532 47.15625-61.792969 93.570313-61.792969zm-151.984375 127.871094c-26.695313-11.171875-46.574219-33.527344-54.542969-61.335938-2.703125-9.425781-6.449219-17.96875-11.136719-25.394531 0 0-12.285156-19.472656-12.300781-19.496094-2.300781-3.644531-1.167969-8.617187 2.46875-10.910156 3.691406-2.328125 8.585938-1.222656 10.914062 2.464844l12.300782 19.496094c5.484375 8.695312 9.847656 18.613281 12.964844 29.480468 6.636718 23.167969 23.199218 41.789063 45.4375 51.097656l6.101562 2.550782c-1.820312 4.992187-3.246094 10.128906-4.261719 15.371094zm-23.320313 85.660156-9.386718 4.996094c-7.617188 4.0625-15.78125 6.949219-24.257813 8.589843-3.527344.683594-17.136719 3.792969-20.335937 3.792969-3.773438 0-7.03125-2.695312-7.75-6.410156-.832032-4.285156 1.980468-8.441406 6.261718-9.273437l18.816406-3.640626c6.925782-1.34375 13.597657-3.703124 19.828126-7.023437l9.382812-4.996094c11.359375-6.050781 24.035156-9.507812 36.886719-10.082031v15.839844c-10.261719.5625-20.367188 3.371094-29.445313 8.207031zm29.464844 73.824219c-17.902344 8.34375-32.546875 21.109375-41.132812 39.433594-2.027344 4.328124-3.660157 8.839843-4.859376 13.464843-2.308593 8.875-6.125 17.519531-11.34375 25.695313 0 0-15.472656 24.242187-15.492187 24.269531-2.296875 3.597656-7.332031 4.707031-10.925781 2.414063-3.597656-2.296876-4.703125-7.335938-2.414063-10.925782l15.492188-24.269531c4.328125-6.777344 7.476562-13.898437 9.371093-21.167969 7.398438-28.460937 28.019532-52.234375 55.160157-63.59375l7.511719-3.144531c.664062 5.382813 1.570312 10.726563 2.707031 16.019531-1.375.578125-2.734375 1.179688-4.074219 1.804688zm254.777344 42.785156c-14.339844 25.277344-35.109375 46.519531-60.054688 61.429688-12.84375 7.675781-27.015625 12.078124-41.378906 13.214843v-49.074219c0-4.144531-3.359375-7.503906-7.5-7.503906-4.144531 0-7.503906 3.359375-7.503906 7.503906v49.074219c-14.363282-1.132812-28.535156-5.539062-41.378906-13.214843-24.945313-14.910157-45.714844-36.152344-60.054688-61.429688-14.34375-25.277344-21.921875-54-21.921875-83.066406v-96.917969c0-11.617187 2.269531-22.820313 6.5625-33.125.425781 2.355469 1.023437 4.707031 1.796875 7.046875 6.75 20.398438 25.007812 33.578125 46.503906 33.578125h68.492188v163.148437c0 4.144532 3.359375 7.503907 7.503906 7.503907 4.140625 0 7.5-3.359375 7.5-7.503907v-163.148437h68.550781c21.351563 0 39.644531-13.148437 46.597657-33.496094.761718-2.222656 1.355468-4.460937 1.796874-6.699219 4.195313 10.199219 6.414063 21.265626 6.414063 32.695313v96.917969c-.003906 29.066406-7.582031 57.789062-21.925781 83.066406zm50.757812-57.464844c27.136719 11.359375 47.757813 35.132813 55.160156 63.597656 1.890626 7.265626 5.042969 14.386719 9.371094 21.164063 0 0 15.476563 24.25 15.488282 24.269531 2.253906 3.53125 1.105468 8.683594-2.410157 10.925782-3.605469 2.300781-8.609375 1.214843-10.925781-2.410157l-15.492188-24.269531c-5.21875-8.179688-9.035156-16.824219-11.34375-25.699219-6.164062-23.710937-23.34375-43.515625-45.957031-52.980469l-11.207031-4.6875c1.054688-5.332031 1.875-10.714843 2.453125-16.125zm0 0"/></svg>